<?xml version="1.0" standalone="no"?>
<svg viewBox="0 0 200 200" xmlns="http://www.w3.org/2000/svg" width="200" height="200">
  <path fill="#7743DB" d="M38.4,-60.2C50.6,-59.5,61.8,-50.8,69.1,-39.5C76.4,-28.1,79.7,-14.1,78,-1C76.3,12.1,69.7,24.3,64,38.4C58.3,52.5,53.7,68.7,43.2,74.9C32.7,81,16.3,77.1,4.2,69.8C-7.9,62.4,-15.8,51.7,-24.6,44.6C-33.4,37.5,-43.2,34,-48.3,27.2C-53.3,20.4,-53.7,10.2,-51.5,1.3C-49.3,-7.7,-44.6,-15.3,-43.1,-28.4C-41.6,-41.4,-43.4,-59.8,-36.7,-63.7C-30.1,-67.7,-15,-57.2,-1,-55.5C13.1,-53.8,26.2,-60.9,38.4,-60.2Z" transform="translate(100 100)" />
</svg>
